<mxfile host="app.diagrams.net" modified="2024-05-12T03:21:37.269Z" agent="Mozilla/5.0 (Windows NT 10.0; Win64; x64) AppleWebKit/537.36 (KHTML, like Gecko) Chrome/124.0.0.0 Safari/537.36 Edg/124.0.0.0" etag="YfWNA2wIehGwf3rU7Yn6" version="24.4.0" type="github">
  <diagram name="PÃ¡gina-1" id="OSsLKUA4rcxO9FhNwbKM">
    <mxGraphModel dx="632" dy="-6276" grid="1" gridSize="10" guides="1" tooltips="1" connect="1" arrows="1" fold="1" page="1" pageScale="1" pageWidth="827" pageHeight="1169" math="0" shadow="0">
      <root>
        <mxCell id="0" />
        <mxCell id="1" parent="0" />
        <mxCell id="cvzdg6A1eqwO6g0mhud0-1" style="edgeStyle=orthogonalEdgeStyle;rounded=0;orthogonalLoop=1;jettySize=auto;html=1;entryX=0.5;entryY=0;entryDx=0;entryDy=0;" edge="1" parent="1" target="cvzdg6A1eqwO6g0mhud0-3">
          <mxGeometry relative="1" as="geometry">
            <mxPoint x="347.5" y="7120" as="sourcePoint" />
          </mxGeometry>
        </mxCell>
        <mxCell id="cvzdg6A1eqwO6g0mhud0-2" value="" style="edgeStyle=orthogonalEdgeStyle;rounded=0;orthogonalLoop=1;jettySize=auto;html=1;" edge="1" parent="1" source="cvzdg6A1eqwO6g0mhud0-3" target="cvzdg6A1eqwO6g0mhud0-6">
          <mxGeometry relative="1" as="geometry" />
        </mxCell>
        <mxCell id="cvzdg6A1eqwO6g0mhud0-3" value="int a, int b,&lt;span style=&quot;background-color: initial;&quot;&gt;int r=(a+b),&lt;/span&gt;&lt;div&gt;,string s1=to_string (r)&lt;/div&gt;&lt;div&gt;,int letter=s1.size()&lt;/div&gt;&lt;div&gt;,int end =r*(letter)&lt;/div&gt;&lt;div&gt;&lt;br&gt;&lt;/div&gt;" style="rounded=0;whiteSpace=wrap;html=1;" vertex="1" parent="1">
          <mxGeometry x="277.5" y="7160" width="142.5" height="80" as="geometry" />
        </mxCell>
        <mxCell id="cvzdg6A1eqwO6g0mhud0-4" value="" style="edgeStyle=orthogonalEdgeStyle;rounded=0;orthogonalLoop=1;jettySize=auto;html=1;" edge="1" parent="1" source="cvzdg6A1eqwO6g0mhud0-6" target="cvzdg6A1eqwO6g0mhud0-8">
          <mxGeometry relative="1" as="geometry" />
        </mxCell>
        <mxCell id="cvzdg6A1eqwO6g0mhud0-5" value="" style="edgeStyle=orthogonalEdgeStyle;rounded=0;orthogonalLoop=1;jettySize=auto;html=1;" edge="1" parent="1" source="cvzdg6A1eqwO6g0mhud0-6" target="cvzdg6A1eqwO6g0mhud0-10">
          <mxGeometry relative="1" as="geometry" />
        </mxCell>
        <mxCell id="cvzdg6A1eqwO6g0mhud0-6" value="a&amp;lt;0 || b&amp;lt;0" style="rhombus;whiteSpace=wrap;html=1;rounded=0;" vertex="1" parent="1">
          <mxGeometry x="308.75" y="7290" width="80" height="80" as="geometry" />
        </mxCell>
        <mxCell id="cvzdg6A1eqwO6g0mhud0-7" style="edgeStyle=orthogonalEdgeStyle;rounded=0;orthogonalLoop=1;jettySize=auto;html=1;entryX=0.5;entryY=0;entryDx=0;entryDy=0;" edge="1" parent="1" source="cvzdg6A1eqwO6g0mhud0-8">
          <mxGeometry relative="1" as="geometry">
            <mxPoint x="650" y="7420" as="targetPoint" />
          </mxGeometry>
        </mxCell>
        <mxCell id="cvzdg6A1eqwO6g0mhud0-8" value="devuelve&amp;nbsp;&lt;div&gt;0&lt;/div&gt;" style="shape=parallelogram;perimeter=parallelogramPerimeter;whiteSpace=wrap;html=1;fixedSize=1;rounded=0;" vertex="1" parent="1">
          <mxGeometry x="448.75" y="7300" width="120" height="60" as="geometry" />
        </mxCell>
        <mxCell id="cvzdg6A1eqwO6g0mhud0-9" style="edgeStyle=orthogonalEdgeStyle;rounded=0;orthogonalLoop=1;jettySize=auto;html=1;entryX=0;entryY=0.5;entryDx=0;entryDy=0;" edge="1" parent="1" source="cvzdg6A1eqwO6g0mhud0-10">
          <mxGeometry relative="1" as="geometry">
            <mxPoint x="590" y="7450" as="targetPoint" />
          </mxGeometry>
        </mxCell>
        <mxCell id="cvzdg6A1eqwO6g0mhud0-10" value="devuelve&amp;nbsp;&lt;div&gt;end&lt;/div&gt;" style="shape=parallelogram;perimeter=parallelogramPerimeter;whiteSpace=wrap;html=1;fixedSize=1;rounded=0;" vertex="1" parent="1">
          <mxGeometry x="290" y="7430" width="120" height="60" as="geometry" />
        </mxCell>
        <mxCell id="cvzdg6A1eqwO6g0mhud0-11" value="si" style="text;html=1;align=center;verticalAlign=middle;whiteSpace=wrap;rounded=0;" vertex="1" parent="1">
          <mxGeometry x="390" y="7290" width="60" height="30" as="geometry" />
        </mxCell>
        <mxCell id="cvzdg6A1eqwO6g0mhud0-12" value="no" style="text;html=1;align=center;verticalAlign=middle;whiteSpace=wrap;rounded=0;" vertex="1" parent="1">
          <mxGeometry x="353" y="7380" width="60" height="30" as="geometry" />
        </mxCell>
        <mxCell id="cvzdg6A1eqwO6g0mhud0-13" value="INCIO 10" style="ellipse;whiteSpace=wrap;html=1;" vertex="1" parent="1">
          <mxGeometry x="290" y="7040" width="120" height="80" as="geometry" />
        </mxCell>
        <mxCell id="cvzdg6A1eqwO6g0mhud0-14" value="FIN" style="ellipse;whiteSpace=wrap;html=1;" vertex="1" parent="1">
          <mxGeometry x="592.87" y="7420" width="120" height="80" as="geometry" />
        </mxCell>
      </root>
    </mxGraphModel>
  </diagram>
</mxfile>
